<svg width="16" height="17" viewBox="0 0 16 17" fill="none" xmlns="http://www.w3.org/2000/svg">
<path d="M11.0532 10.3841H10.3625L10.1176 10.148C10.9745 9.15121 11.4904 7.85713 11.4904 6.44937C11.4904 3.31033 8.94595 0.765869 5.80691 0.765869C2.66787 0.765869 0.123413 3.31033 0.123413 6.44937C0.123413 9.58841 2.66787 12.1329 5.80691 12.1329C7.21467 12.1329 8.50876 11.617 9.50556 10.7601L9.74164 11.0049V11.6957L14.1136 16.0588L15.4164 14.756L11.0532 10.3841ZM5.80691 10.3841C3.62969 10.3841 1.87218 8.62658 1.87218 6.44937C1.87218 4.27215 3.62969 2.51464 5.80691 2.51464C7.98413 2.51464 9.74164 4.27215 9.74164 6.44937C9.74164 8.62658 7.98413 10.3841 5.80691 10.3841Z" fill="#6E6F72"/>
</svg>
